<svg width="19" height="18" viewBox="0 0 19 18" fill="none" xmlns="http://www.w3.org/2000/svg">
<path d="M17.1316 18C15.0483 18 12.99 17.5458 10.9566 16.6375C8.92331 15.7292 7.07331 14.4417 5.40664 12.775C3.73997 11.1083 2.45247 9.25833 1.54414 7.225C0.635807 5.19167 0.181641 3.13333 0.181641 1.05C0.181641 0.75 0.281641 0.5 0.481641 0.3C0.681641 0.1 0.931641 0 1.23164 0H5.28164C5.51497 0 5.72331 0.0791667 5.90664 0.2375C6.08997 0.395833 6.19831 0.583333 6.23164 0.8L6.88164 4.3C6.91497 4.56667 6.90664 4.79167 6.85664 4.975C6.80664 5.15833 6.71497 5.31667 6.58164 5.45L4.15664 7.9C4.48997 8.51667 4.88581 9.1125 5.34414 9.6875C5.80247 10.2625 6.30664 10.8167 6.85664 11.35C7.37331 11.8667 7.91497 12.3458 8.48164 12.7875C9.04831 13.2292 9.64831 13.6333 10.2816 14L12.6316 11.65C12.7816 11.5 12.9775 11.3875 13.2191 11.3125C13.4608 11.2375 13.6983 11.2167 13.9316 11.25L17.3816 11.95C17.615 12.0167 17.8066 12.1375 17.9566 12.3125C18.1066 12.4875 18.1816 12.6833 18.1816 12.9V16.95C18.1816 17.25 18.0816 17.5 17.8816 17.7C17.6816 17.9 17.4316 18 17.1316 18Z" fill="white"/>
</svg>
