<svg width="13" height="20" viewBox="0 0 13 20" fill="none" xmlns="http://www.w3.org/2000/svg">
<path d="M6.18164 20C4.41497 20 2.97331 19.7208 1.85664 19.1625C0.739974 18.6042 0.181641 17.8833 0.181641 17C0.181641 16.4167 0.423307 15.9083 0.906641 15.475C1.38997 15.0417 2.05664 14.7 2.90664 14.45L3.48164 16.35C3.19831 16.4333 2.93997 16.5375 2.70664 16.6625C2.47331 16.7875 2.31497 16.9 2.23164 17C2.44831 17.2667 2.94831 17.5 3.73164 17.7C4.51497 17.9 5.33164 18 6.18164 18C7.03164 18 7.85247 17.9 8.64414 17.7C9.43581 17.5 9.93997 17.2667 10.1566 17C10.0733 16.9 9.91497 16.7875 9.68164 16.6625C9.44831 16.5375 9.18997 16.4333 8.90664 16.35L9.48164 14.45C10.3316 14.7 10.9941 15.0417 11.4691 15.475C11.9441 15.9083 12.1816 16.4167 12.1816 17C12.1816 17.8833 11.6233 18.6042 10.5066 19.1625C9.38997 19.7208 7.94831 20 6.18164 20ZM6.18164 17C5.99831 17 5.83164 16.9458 5.68164 16.8375C5.53164 16.7292 5.42331 16.5833 5.35664 16.4C4.97331 15.2167 4.48997 14.225 3.90664 13.425C3.32331 12.625 2.75664 11.8583 2.20664 11.125C1.67331 10.3917 1.21081 9.63333 0.819141 8.85C0.427474 8.06667 0.231641 7.1 0.231641 5.95C0.231641 4.28333 0.806641 2.875 1.95664 1.725C3.10664 0.575 4.51497 0 6.18164 0C7.84831 0 9.25664 0.575 10.4066 1.725C11.5566 2.875 12.1316 4.28333 12.1316 5.95C12.1316 7.1 11.94 8.06667 11.5566 8.85C11.1733 9.63333 10.7066 10.3917 10.1566 11.125C9.62331 11.8583 9.06081 12.625 8.46914 13.425C7.87747 14.225 7.38997 15.2167 7.00664 16.4C6.93997 16.5833 6.83164 16.7292 6.68164 16.8375C6.53164 16.9458 6.36497 17 6.18164 17ZM6.18164 8.075C6.76497 8.075 7.26497 7.86667 7.68164 7.45C8.09831 7.03333 8.30664 6.53333 8.30664 5.95C8.30664 5.36667 8.09831 4.86667 7.68164 4.45C7.26497 4.03333 6.76497 3.825 6.18164 3.825C5.59831 3.825 5.09831 4.03333 4.68164 4.45C4.26497 4.86667 4.05664 5.36667 4.05664 5.95C4.05664 6.53333 4.26497 7.03333 4.68164 7.45C5.09831 7.86667 5.59831 8.075 6.18164 8.075Z" fill="white"/>
</svg>
