<svg width="47" height="28" viewBox="0 0 47 28" fill="none" xmlns="http://www.w3.org/2000/svg">
<path d="M13.5517 7.48001L16.5346 4.22895L11.9912 0.117188L8.72461 7.34176C9.31853 7.12918 10.0134 7.03553 10.9325 7.03553C12.0402 7.03702 12.9073 7.1723 13.5517 7.48001Z" fill="white"/>
<path d="M14.5273 8.2921C14.8852 8.81684 15.053 9.52444 15.053 10.4491V11.1002L15.096 11.121L18.1399 14.2591L23.2594 10.3004L19.3232 6.74609L14.5273 8.2921Z" fill="white"/>
<path d="M15.0164 11.217L14.9213 11.168H9.49886C9.3682 11.168 9.24051 11.168 9.11133 11.168L9.72603 16.8837C10.082 16.7719 10.4532 16.7167 10.8263 16.7202H14.9421L15.0208 16.6696L18.0454 14.3313L15.0164 11.217Z" fill="white"/>
<path d="M12.041 0.00390625L16.6172 4.13797L18.9706 1.5722C17.1769 0.598519 14.8577 0.0767466 12.041 0.00390625Z" fill="white"/>
<path d="M13.6641 7.53047C13.9721 7.68988 14.2416 7.91462 14.454 8.18901L19.2202 6.65341L16.6248 4.30469L13.6641 7.53047Z" fill="white"/>
<path d="M8.70805 17.5188C8.95798 17.2529 9.26665 17.0493 9.60933 16.9242L8.99017 11.1758C8.283 11.1954 7.5785 11.2709 6.88324 11.4017L5.39844 14.7018L8.70805 17.5188Z" fill="white"/>
<path d="M18.5511 21.1875L14.3105 22.2756L16.3492 24.006L18.5511 21.1875Z" fill="white"/>
<path d="M21.2912 17.6804L18.1271 14.4219L15.0892 16.7706L15.0521 16.7944V17.4381C15.0521 18.764 14.8472 19.6322 14.2384 20.1926C13.852 20.5845 13.3729 20.8724 12.8457 21.0295L14.1984 22.1771L18.6721 21.0295L21.2912 17.6804Z" fill="white"/>
<path d="M10.0618 21.12C9.21992 20.9312 8.66312 20.4615 8.38546 19.8668L3.36387 19.1875L1.28516 23.7958C1.55894 24.3132 1.89178 24.7971 2.277 25.2377L10.283 23.1863L10.0618 21.12Z" fill="white"/>
<path d="M18.2246 14.3498L21.3664 17.5875L23.3605 15.0351L23.408 15.0723V10.4387L23.3501 10.3867L18.2246 14.3498Z" fill="white"/>
<path d="M6.54492 8.87313C6.89211 8.51368 7.26966 8.18492 7.67337 7.89052L4.27021 1.40625C3.19254 2.01569 2.20878 2.77828 1.34961 3.67025L6.54492 8.87313Z" fill="white"/>
<path d="M23.3566 10.2223L23.4085 10.1822V9.93544C23.4085 8.30025 23.1546 6.88506 22.6661 5.66016L19.459 6.70073L23.3566 10.2223Z" fill="white"/>
<path d="M11.8916 0.0311194L11.8574 0.00138685C11.6837 0.00138685 11.51 0.00138685 11.3333 0.00138685C10.1955 -0.0112353 9.05837 0.0623165 7.93164 0.221401L8.67404 7.14717L11.8916 0.0311194Z" fill="white"/>
<path d="M6.73779 11.4297C5.48602 11.6642 4.29762 12.1601 3.25 12.885L5.29605 14.6213L6.73779 11.4297Z" fill="white"/>
<path d="M23.409 24.616V19.9453L18.7423 21.1345L16.4453 24.0868L20.8641 27.8359C23.3184 27.1595 23.409 24.616 23.409 24.616Z" fill="white"/>
<path d="M19.5504 28.0001C19.9426 28.0027 20.3338 27.9593 20.7159 27.8708L16.367 24.1797L15.3053 25.5369L15.2578 25.5012C15.2578 25.5012 15.8102 28.0001 19.5504 28.0001Z" fill="white"/>
<path d="M3.23884 19.1711L0.184613 18.7578C0.184613 18.8797 0.184613 19.0001 0.184613 19.122C0.162019 20.6959 0.515308 22.2524 1.21506 23.6619L3.23884 19.1711Z" fill="white"/>
<path d="M14.055 22.2179L12.7038 21.0703C12.1176 21.1884 11.5197 21.2383 10.9221 21.219C10.673 21.2194 10.4245 21.1965 10.1797 21.1506L10.3994 23.1604L14.055 22.2179Z" fill="white"/>
<path d="M10.295 23.3086L2.36914 25.3377C2.43596 25.4106 2.50129 25.4864 2.57107 25.5518C4.09745 27.0814 6.38997 28.0016 9.14428 28.0016C9.6945 28.0049 10.2443 27.9692 10.7894 27.8946L10.295 23.3086Z" fill="white"/>
<path d="M15.2575 25.4967L15.21 25.4595L16.2746 24.0963L14.1676 22.3125L10.4141 23.2743L10.9085 27.8826C12.7407 27.5852 13.9523 26.8018 15.2575 25.4967Z" fill="white"/>
<path d="M23.4077 15.168L21.4492 17.6713L23.4077 19.69V15.168Z" fill="white"/>
<path d="M21.3741 17.7734L18.8633 20.9858L23.3711 19.8308L21.3741 17.7734Z" fill="white"/>
<path d="M8.33078 19.7422C8.23037 19.481 8.18 19.2031 8.1823 18.9232C8.17598 18.4468 8.33676 17.9834 8.63665 17.6135L5.34039 14.8203L3.41016 19.0778L8.33078 19.7422Z" fill="white"/>
<path d="M5.24418 14.7331L3.15061 12.9492C1.25007 14.3495 0.31019 16.4247 0.191406 18.6293L3.29018 19.0485L5.24418 14.7331Z" fill="white"/>
<path d="M19.3505 6.61271L22.6171 5.55727C21.9226 3.88128 20.6732 2.49557 19.0788 1.63281L16.7031 4.22087L19.3505 6.61271Z" fill="white"/>
<path d="M7.77269 7.82167C8.01947 7.65449 8.28326 7.51397 8.55963 7.40246L8.57893 7.35935L7.81129 0.234375C6.61216 0.410568 5.45119 0.787461 4.37695 1.34928L7.77269 7.82167Z" fill="white"/>
<path d="M32.0918 10.3349V9.71505C32.1215 9.05765 32.3626 8.42747 32.7792 7.91847C33.1958 7.40948 33.7656 7.04894 34.4036 6.89062L36.0369 10.0792L32.0918 10.3349Z" fill="white"/>
<path d="M38.9441 15.7531L38.8996 15.7858L33.1742 15.4394L32.1452 13.2527L32.0918 13.165V10.4536L36.0948 10.1875L38.9441 15.7531Z" fill="white"/>
<path d="M33.2305 15.5625L38.745 15.8955L34.7509 18.7957L33.2305 15.5625Z" fill="white"/>
<path d="M39.5374 24.0938V24.3019C39.5167 24.7357 39.4049 25.1603 39.2095 25.548C39.014 25.9358 38.7393 26.278 38.403 26.5525L37.334 24.2781L39.5374 24.0938Z" fill="white"/>
<path d="M39.5357 13.278H42.3509L39.0413 15.6802L36.2246 10.177L39.5357 9.95703V13.278Z" fill="white"/>
<path d="M25.9238 15.0027C26.7405 13.2813 28.5311 13.2812 28.5311 13.2812H32.0189L32.0382 13.3125L33.036 15.4293L25.9238 15.0027Z" fill="white"/>
<path d="M34.8047 18.9085L38.9354 15.9102L39.0275 15.9161L41.4982 20.7429H39.5367V23.9776L37.2784 24.1664L34.8047 18.9085Z" fill="white"/>
<path d="M37.2043 24.293L38.3061 26.6328C37.7567 27.0282 36.9697 27.3151 35.8146 27.3151C32.9519 27.3151 32.2911 25.5402 32.1367 24.7166L37.2043 24.293Z" fill="white"/>
<path d="M31.9577 20.7429H28.5323C28.5323 20.7429 25.8091 20.7429 25.5508 17.5156L31.9577 20.7429Z" fill="white"/>
<path d="M36.1652 10.0629L34.5215 6.85193C34.9449 6.74992 35.3792 6.7 35.8147 6.70328C39.5371 6.70328 39.5371 9.71351 39.5371 9.71351V9.8369L36.1652 10.0629Z" fill="white"/>
<path d="M25.5287 17.0081C25.5131 16.3608 25.6304 15.7172 25.8732 15.1172L33.0953 15.5542L34.6543 18.8677L32.1004 20.7214L32.1183 20.6858L25.5391 17.3708C25.5332 17.2533 25.5287 17.1344 25.5287 17.0081Z" fill="white"/>
<path d="M46.0669 16.3381C46.0914 16.5607 46.1033 16.7846 46.1025 17.0085C46.1025 18.2587 45.7655 19.0897 45.3171 19.6412L45.1255 19.8552C44.5817 20.3907 43.8606 20.7081 43.0988 20.7472H41.6348L39.1641 15.9219L46.0669 16.3381Z" fill="white"/>
<path d="M39.0977 15.792L42.5558 13.2812H43.0977C43.0977 13.2812 45.6575 13.2813 46.051 16.2201L39.1021 15.7994L39.0977 15.792Z" fill="white"/>
<path d="M32.0918 24.3067V20.8803L34.7095 18.9805L37.155 24.1833L32.1215 24.604C32.1049 24.5057 32.0949 24.4064 32.0918 24.3067Z" fill="white"/>
</svg>
