<svg width="45" height="45" viewBox="0 0 45 45" fill="none" xmlns="http://www.w3.org/2000/svg">
<g clip-path="url(#clip0_832_2820)">
<path d="M31.9442 31.7304C31.424 31.7135 30.9179 31.7163 30.4273 31.7304C29.9367 31.7445 29.4673 31.7883 29.0176 31.8377V33.0317C29.1388 33.0402 29.2615 33.0515 29.3869 33.0628L29.7535 33.1051C29.8719 33.1207 29.9804 33.1376 30.0777 33.1545V37.7995H31.9428L31.9442 31.7304Z" fill="white"/>
<path d="M5.93132 34.3999C5.93588 34.0246 5.88457 33.6507 5.77906 33.2905C5.68494 32.9639 5.52519 32.6598 5.30961 32.3971C5.08777 32.1356 4.80637 31.9313 4.48913 31.8015C4.11184 31.6493 3.70734 31.5763 3.30071 31.587C2.87327 31.5802 2.44918 31.6634 2.05589 31.8311C1.70319 31.9846 1.39058 32.2174 1.14236 32.5114C0.887823 32.8118 0.69607 33.1602 0.57846 33.5361C0.44867 33.956 0.385403 34.3937 0.390962 34.8332C0.390962 35.5389 0.509381 36.1275 0.746221 36.5862C0.971708 37.0311 1.33876 37.3881 1.78944 37.601C2.31987 37.8366 2.89707 37.9476 3.47693 37.9256C3.73037 37.9255 3.9836 37.9109 4.23538 37.8819C4.49221 37.8503 4.74691 37.8031 4.99806 37.7407C5.24151 37.6831 5.48041 37.6076 5.7128 37.5149L5.54363 36.1035C5.26365 36.231 4.96988 36.3257 4.66817 36.3858C4.37113 36.4491 4.06822 36.4808 3.76452 36.4803C3.26546 36.4803 2.89469 36.366 2.64799 36.1486C2.52025 36.0297 2.41981 35.8845 2.35361 35.7229C2.28741 35.5614 2.25701 35.3873 2.26453 35.2129H5.87352C5.88902 35.0717 5.90453 34.9306 5.9144 34.7895C5.92427 34.6483 5.93132 34.5213 5.93132 34.3943V34.3999ZM4.09863 33.9864H2.27863C2.2898 33.7942 2.34273 33.6069 2.4337 33.4373C2.51363 33.2878 2.63063 33.1615 2.77346 33.0704C2.91788 32.9814 3.08461 32.9354 3.25418 32.9377C3.4169 32.934 3.57745 32.9755 3.71799 33.0577C3.85118 33.1413 3.95474 33.2647 4.01404 33.4105C4.0888 33.5927 4.11971 33.79 4.10427 33.9864H4.09863Z" fill="white"/>
<path d="M10.9059 35.8758C10.9098 35.6384 10.8677 35.4026 10.7818 35.1813C10.7058 34.9998 10.5958 34.8345 10.4576 34.6944C10.3244 34.5646 10.1757 34.4518 10.0149 34.3585C9.86022 34.2731 9.70117 34.1959 9.53843 34.127C9.37772 34.0593 9.2311 33.9944 9.09577 33.9337C8.97785 33.8805 8.86818 33.8106 8.77011 33.7262C8.73218 33.6918 8.70162 33.65 8.68029 33.6034C8.65897 33.5569 8.64732 33.5064 8.64605 33.4552C8.64382 33.3889 8.65811 33.3231 8.68765 33.2637C8.71718 33.2043 8.76103 33.1532 8.81522 33.115C8.97362 33.0218 9.15625 32.978 9.33965 32.9894C9.52545 32.9895 9.71103 33.0022 9.8951 33.0275C10.0708 33.0494 10.2444 33.0863 10.4139 33.1376L10.4491 31.6853C10.2786 31.6585 10.1009 31.6373 9.92047 31.6189C9.7423 31.5968 9.5629 31.586 9.38336 31.5865C8.98637 31.5798 8.59072 31.6345 8.21044 31.7488C7.90322 31.8387 7.61608 31.9867 7.36458 32.1849C7.15274 32.361 6.98234 32.5817 6.86553 32.8314C6.75275 33.0759 6.69546 33.3425 6.69776 33.6119C6.69216 33.8575 6.7338 34.1018 6.82041 34.3317C6.89179 34.5134 7.00142 34.6775 7.14184 34.813C7.27045 34.9379 7.41618 35.0439 7.57464 35.1277C7.72902 35.2079 7.88815 35.2786 8.05113 35.3394C8.20762 35.3959 8.35282 35.4566 8.48393 35.5173C8.60234 35.5655 8.71048 35.6359 8.80254 35.7247C8.88272 35.8075 8.92726 35.9185 8.92659 36.0338C8.92651 36.1046 8.90816 36.1741 8.87333 36.2357C8.83851 36.2973 8.78838 36.3488 8.72782 36.3853C8.55571 36.4807 8.36042 36.5262 8.16391 36.5165C7.9429 36.5153 7.72232 36.4969 7.50415 36.4615C7.29846 36.4269 7.09507 36.3798 6.89513 36.3204L6.85989 37.8277C7.05584 37.8546 7.25744 37.8757 7.47313 37.8927C7.68883 37.9096 7.89606 37.9223 8.11316 37.9251C8.61702 37.9332 9.11799 37.8476 9.59059 37.6725C9.97135 37.5317 10.3053 37.2873 10.5549 36.9668C10.7888 36.6518 10.9123 36.2682 10.9059 35.8758Z" fill="white"/>
<path d="M16.4701 33.6744C16.4847 33.2603 16.3789 32.8509 16.1656 32.4959C15.9524 32.1703 15.6421 31.9204 15.2788 31.7817C14.8194 31.6096 14.3312 31.5277 13.8409 31.5403C13.4899 31.5403 13.1557 31.5403 12.8357 31.5516C12.5157 31.5629 12.2084 31.5742 11.918 31.5883V37.9622H13.6703V35.9976C13.7323 35.9976 13.7859 35.9976 13.8338 35.9976C13.8818 35.9976 13.9128 35.9976 13.9339 35.9976C14.3136 36.0028 14.691 35.9387 15.0476 35.8084C15.346 35.6962 15.6171 35.5215 15.8427 35.2961C16.0489 35.0839 16.2096 34.8317 16.315 34.5551C16.4197 34.2714 16.4722 33.9711 16.4701 33.6687V33.6744ZM14.66 33.7322C14.6629 33.8886 14.6209 34.0425 14.5387 34.1754C14.4626 34.2947 14.354 34.3897 14.2257 34.4492C14.0935 34.5117 13.949 34.5435 13.8028 34.5424H13.7507C13.7244 34.5447 13.698 34.5447 13.6717 34.5424V32.9898C13.7047 32.9839 13.7382 32.981 13.7718 32.9814H13.8409C14.0078 32.9748 14.1737 33.0107 14.323 33.0858C14.4381 33.1489 14.5292 33.2481 14.5824 33.3681C14.6334 33.4827 14.6598 33.6068 14.66 33.7322Z" fill="white"/>
<path d="M23.5666 37.6945V36.4976C23.4468 36.4976 23.3242 36.4792 23.1987 36.4651C23.0732 36.451 22.9506 36.4397 22.8322 36.4256L22.5079 36.3762V33.7425C22.5145 33.4292 22.4722 33.1168 22.3824 32.8166C22.3038 32.5565 22.1579 32.3218 21.9595 32.1363C21.7242 31.931 21.4426 31.7857 21.139 31.7129C20.7158 31.6087 20.2806 31.5612 19.8449 31.5718C19.589 31.5717 19.3333 31.5877 19.0794 31.6197C18.8214 31.6508 18.5719 31.6917 18.328 31.7454C18.0841 31.799 17.8613 31.8597 17.6527 31.926L17.7937 33.4602C17.9752 33.3678 18.1638 33.2899 18.3576 33.2273C18.5606 33.1632 18.7679 33.1132 18.9779 33.0777C19.1714 33.0426 19.3676 33.0242 19.5643 33.0227C19.7801 33.0158 19.9956 33.043 20.203 33.1031C20.3427 33.1447 20.4641 33.2328 20.5469 33.353C20.6215 33.4775 20.6573 33.6215 20.6498 33.7665V33.9994C20.1977 33.997 19.7467 34.0444 19.3049 34.1405C18.9238 34.2231 18.5583 34.3661 18.2222 34.5639C17.9284 34.7381 17.6805 34.9801 17.499 35.2697C17.3213 35.5727 17.2305 35.919 17.2368 36.2703C17.2298 36.5689 17.2977 36.8644 17.4342 37.1299C17.5681 37.3794 17.7746 37.5822 18.0263 37.7114C18.3273 37.8624 18.6611 37.9361 18.9976 37.9259C19.2661 37.9265 19.5329 37.8827 19.7871 37.7961C20.0207 37.7139 20.2376 37.5901 20.4271 37.4305C20.6062 37.2782 20.7505 37.089 20.85 36.8758H20.8599C20.838 37.0293 20.8239 37.1838 20.8176 37.3388C20.8176 37.4954 20.8106 37.6507 20.8106 37.8045C21.1066 37.8158 21.4083 37.8172 21.7227 37.813C22.037 37.8088 22.3458 37.7918 22.6559 37.7735C22.9661 37.7551 23.2706 37.7269 23.5652 37.6945H23.5666ZM20.6442 35.3515C20.6423 35.5472 20.597 35.74 20.5117 35.9161C20.4259 36.0855 20.2995 36.231 20.1437 36.3395C19.9818 36.4478 19.7915 36.5058 19.5968 36.506C19.4336 36.5171 19.2722 36.4668 19.1442 36.3649C19.0918 36.3169 19.0504 36.2581 19.0229 36.1926C18.9954 36.127 18.9824 36.0563 18.9849 35.9852C18.9829 35.8775 19.0071 35.771 19.0554 35.6747C19.1152 35.5671 19.2042 35.4786 19.312 35.4193C19.4689 35.3312 19.6403 35.272 19.8181 35.2442C20.0905 35.198 20.3665 35.1768 20.6428 35.1807L20.6442 35.3515Z" fill="white"/>
<path d="M28.391 37.6559L28.2416 36.0808C28.087 36.1574 27.923 36.2134 27.7538 36.2473C27.5774 36.2828 27.398 36.3008 27.2181 36.301C26.9727 36.3081 26.7305 36.2444 26.5203 36.1175C26.3293 35.9933 26.1815 35.8128 26.0973 35.6009C25.9992 35.3458 25.9513 35.074 25.9564 34.8006C25.9492 34.5074 25.997 34.2153 26.0973 33.9397C26.1789 33.7165 26.3264 33.5235 26.5203 33.3864C26.7335 33.253 26.9809 33.1848 27.2322 33.1902C27.3947 33.1899 27.5568 33.2069 27.7157 33.241C27.8734 33.271 28.0288 33.3115 28.181 33.3624L28.3797 31.752C28.1878 31.7028 27.9935 31.6637 27.7975 31.6349C27.6018 31.6079 27.4044 31.5942 27.2068 31.5939C26.7195 31.5893 26.2362 31.6829 25.7858 31.8691C25.4041 32.0286 25.0658 32.2768 24.799 32.5932C24.5363 32.9056 24.3396 33.2681 24.221 33.6588C24.0919 34.0798 24.0286 34.5183 24.0335 34.9587C24.0335 35.9335 24.2661 36.6703 24.7313 37.169C25.1965 37.6677 25.8896 37.918 26.8107 37.9199C27.0038 37.9203 27.1967 37.9099 27.3887 37.8888C27.5707 37.8693 27.7515 37.8391 27.93 37.7985C28.0872 37.7632 28.2414 37.7156 28.391 37.6559Z" fill="white"/>
<path d="M32.1488 30.0005C32.1497 29.8043 32.096 29.6117 31.9938 29.4444C31.8952 29.2807 31.7557 29.1455 31.5892 29.052C31.4148 28.9527 31.2174 28.9011 31.0168 28.9024C30.8148 28.9006 30.6159 28.9522 30.4402 29.052C30.2741 29.1466 30.1345 29.2815 30.0342 29.4444C29.9362 29.6133 29.8847 29.8051 29.8848 30.0005C29.8847 30.1953 29.9363 30.3867 30.0342 30.5551C30.1356 30.7174 30.275 30.8526 30.4402 30.9489C30.6172 31.0445 30.8157 31.0931 31.0168 31.0901C31.2175 31.0908 31.4149 31.0388 31.5892 30.9391C31.7554 30.8438 31.8946 30.7078 31.9938 30.5439C32.0953 30.3782 32.1489 30.1877 32.1488 29.9934V30.0005Z" fill="white"/>
<path d="M39.0041 34.6325C39.0213 34.0524 38.903 33.4764 38.6587 32.9501C38.446 32.515 38.1003 32.159 37.6719 31.9339C37.1844 31.6957 36.6465 31.5795 36.1042 31.5951C35.6662 31.5913 35.2315 31.6723 34.8242 31.8337C34.4427 31.9849 34.097 32.2142 33.8091 32.5069C33.5163 32.805 33.2882 33.1606 33.1395 33.5514C32.9778 33.9821 32.897 34.4391 32.9013 34.8993C32.8916 35.3693 32.9622 35.8376 33.1099 36.2839C33.2277 36.6391 33.4294 36.9605 33.6978 37.221C33.9586 37.4676 34.2726 37.6506 34.6155 37.756C35.0032 37.8747 35.4071 37.9318 35.8124 37.9253C36.2468 37.9278 36.6776 37.8464 37.0812 37.6854C37.4615 37.534 37.8065 37.3058 38.0948 37.015C38.386 36.7174 38.6133 36.3634 38.763 35.9748C38.9253 35.546 39.0075 35.091 39.0055 34.6325H39.0041ZM37.077 34.7412C37.0844 35.0336 37.0366 35.3247 36.936 35.5993C36.8576 35.8118 36.7196 35.9971 36.5384 36.1328C36.3665 36.255 36.16 36.3188 35.9492 36.3149C35.7863 36.3268 35.6232 36.2969 35.4752 36.228C35.3271 36.1591 35.1991 36.0534 35.1033 35.9211C34.92 35.6544 34.8312 35.2451 34.8326 34.6932C34.8281 34.4612 34.8614 34.2299 34.9313 34.0087C34.9843 33.8357 35.0727 33.6756 35.1907 33.5387C35.292 33.4218 35.4183 33.3292 35.5601 33.2677C35.6958 33.2091 35.8422 33.1793 35.99 33.1802C36.3707 33.1802 36.6484 33.31 36.826 33.5725C37.0037 33.8351 37.0727 34.2232 37.0699 34.7412H37.077Z" fill="white"/>
<path d="M44.079 35.8789C44.0806 35.6416 44.0381 35.4061 43.9536 35.1845C43.8781 35.0015 43.7674 34.8351 43.6279 34.6947C43.4947 34.5649 43.3461 34.4521 43.1853 34.3588C43.0287 34.2716 42.8678 34.1924 42.7031 34.1217C42.541 34.0539 42.3944 33.989 42.2562 33.9283C42.1404 33.8752 42.0331 33.8053 41.9376 33.7208C41.8986 33.687 41.8671 33.6455 41.845 33.5988C41.823 33.5522 41.8108 33.5014 41.8093 33.4498C41.8071 33.3834 41.8216 33.3175 41.8514 33.258C41.8812 33.1986 41.9254 33.1476 41.9799 33.1097C42.1384 33.0167 42.321 32.973 42.5043 32.9841C42.6897 32.9841 42.8748 32.9968 43.0584 33.0222C43.2337 33.0439 43.4068 33.0808 43.5758 33.1323L43.6124 31.6799C43.4418 31.6531 43.2642 31.6319 43.0837 31.6136C42.9079 31.5923 42.7308 31.582 42.5537 31.5826C42.1567 31.576 41.7611 31.6308 41.3808 31.7449C41.0735 31.8346 40.7863 31.9826 40.5349 32.181C40.3219 32.3569 40.1501 32.5776 40.0316 32.8274C39.9215 33.0727 39.8657 33.339 39.8681 33.6079C39.8604 33.8537 39.9021 34.0985 39.9907 34.3277C40.0611 34.5109 40.1703 34.6765 40.3108 34.8133C40.4399 34.9376 40.5855 35.0435 40.7435 35.128C40.8976 35.2079 41.0562 35.2786 41.2186 35.3397C41.3765 35.3962 41.5203 35.4569 41.6528 35.5176C41.772 35.5652 41.8807 35.6357 41.9729 35.725C42.0128 35.7657 42.0442 35.8141 42.065 35.8672C42.0858 35.9203 42.0957 35.9771 42.0941 36.0341C42.0935 36.1045 42.0742 36.1735 42.0383 36.234C42.0024 36.2945 41.9511 36.3443 41.8897 36.3785C41.7177 36.4742 41.5223 36.5196 41.3258 36.5098C41.1043 36.5086 40.8832 36.4902 40.6646 36.4547C40.4593 36.4203 40.2564 36.3732 40.057 36.3136L40.0203 37.8266C40.2163 37.8534 40.4207 37.8746 40.6336 37.8916C40.8465 37.9085 41.0565 37.9212 41.275 37.924C41.7789 37.9323 42.2799 37.8466 42.7525 37.6714C43.1336 37.5306 43.468 37.2862 43.7181 36.9657C43.9536 36.6525 44.0804 36.2709 44.079 35.8789Z" fill="white"/>
<path d="M3.07165 44.7577L2.85173 44.0675H1.54911L1.33482 44.7577H0.181641L1.5618 40.5234H2.89684L4.34325 44.7577H3.07165ZM2.3865 42.618C2.30656 42.3806 2.24205 42.1382 2.19337 41.8925H2.18209C2.13216 42.1637 2.06338 42.4311 1.97626 42.6928L1.83529 43.1571H2.56272L2.3865 42.618Z" fill="white"/>
<path d="M6.16685 44.7921C5.71009 44.7921 5.25333 44.778 4.82617 44.754V40.5367C5.15888 40.5169 5.73547 40.5 6.34871 40.5C7.58366 40.5 8.44784 41.0067 8.44784 42.5381C8.44784 43.9876 7.53996 44.7921 6.16685 44.7921ZM6.28809 41.4823C6.18923 41.479 6.09026 41.4832 5.99204 41.495V43.7618C6.08126 43.7784 6.17204 43.785 6.26272 43.7815C6.78151 43.7815 7.19034 43.423 7.19034 42.6326C7.19034 41.9735 7.06346 41.4823 6.28809 41.4823Z" fill="white"/>
<path d="M10.9483 44.8457C9.62169 44.8457 8.97461 44.0412 8.97461 42.6989C8.97461 41.3312 9.94029 40.4336 11.1245 40.4336C12.2269 40.4336 13.0982 41.0292 13.0982 42.5662C13.0967 43.9452 12.1508 44.8457 10.9483 44.8457ZM11.0329 41.5006C10.6254 41.5006 10.211 41.8125 10.211 42.61C10.211 43.3312 10.4436 43.7716 11.0061 43.7716C11.3698 43.7716 11.8519 43.5203 11.8519 42.6227C11.8562 41.8916 11.5869 41.5006 11.03 41.5006H11.0329Z" fill="white"/>
<path d="M13.7227 44.7577V40.5234H14.897V43.7175H16.053V44.7591L13.7227 44.7577Z" fill="white"/>
<path d="M16.7148 44.7577V40.5234H19.1918V41.5114H17.8807V42.1085H19.1255V43.0612H17.8849V43.7429H19.196V44.7548L16.7148 44.7577Z" fill="white"/>
<path d="M20.9186 44.8379C20.6264 44.8391 20.335 44.8102 20.0487 44.7519L20.1094 43.6834C20.4014 43.7805 20.7067 43.8315 21.0144 43.8344C21.2964 43.8344 21.4768 43.7159 21.4768 43.5211C21.4768 42.9057 19.8965 43.2699 19.8965 41.8204C19.8965 40.9735 20.5407 40.4414 21.6573 40.4414C21.9157 40.4442 22.1735 40.4669 22.4284 40.5092L22.3664 41.5197C22.1219 41.4473 21.8685 41.4093 21.6136 41.4068C21.2879 41.4068 21.1512 41.5395 21.1512 41.7018C21.1512 42.2353 22.7287 42.0278 22.7287 43.3517C22.7287 44.1986 22.0478 44.8379 20.9186 44.8379Z" fill="white"/>
<path d="M25.2209 44.8111C23.5602 44.8111 23.2148 43.665 23.2148 42.8125C23.2148 41.4011 24.0099 40.4922 25.3957 40.4922C25.6707 40.4929 25.9446 40.5256 26.212 40.5896L26.0795 41.6453C25.8567 41.5837 25.6268 41.5519 25.3957 41.5507C24.8431 41.5507 24.4991 41.9332 24.4991 42.6178C24.4991 43.3517 24.7811 43.7469 25.4394 43.7469C25.6581 43.7456 25.8748 43.7055 26.0795 43.6283L26.2205 44.67C25.8961 44.7662 25.5592 44.8138 25.2209 44.8111Z" fill="white"/>
<path d="M26.8867 44.7577V40.5234H29.3623V41.5114H28.054V42.1085H29.2918V43.0612H28.054V43.7429H29.3623V44.7548L26.8867 44.7577Z" fill="white"/>
<path d="M32.44 44.7577L31.7351 43.3082C31.5702 42.9736 31.4207 42.6363 31.3122 42.354C31.3362 42.5771 31.347 42.8015 31.3446 43.0259V44.7577H30.2168V40.5234H31.714L32.3272 41.7852C32.5105 42.1607 32.698 42.5446 32.8418 42.8819C32.8128 42.5897 32.7987 42.2962 32.7995 42.0026V40.5234H33.9273V44.7577H32.44Z" fill="white"/>
<path d="M36.6341 41.5284V44.7591H35.4696V41.5284H34.5547V40.5234H37.5476V41.5284H36.6341Z" fill="white"/>
<path d="M38.1816 44.7577V40.5234H40.6572V41.5114H39.3475V42.1085H40.5895V43.0612H39.3475V43.7429H40.6572V44.7548L38.1816 44.7577Z" fill="white"/>
<path d="M42.2252 44.8379C41.9326 44.8389 41.6407 44.81 41.354 44.7519L41.4174 43.6834C41.7085 43.7805 42.0129 43.8315 42.3197 43.8344C42.6016 43.8344 42.7835 43.7159 42.7835 43.5211C42.7835 42.9057 41.2031 43.2699 41.2031 41.8204C41.2031 40.9735 41.8502 40.4414 42.9653 40.4414C43.2237 40.4444 43.4815 40.4671 43.7365 40.5092L43.673 41.5197C43.429 41.4475 43.1761 41.4095 42.9216 41.4068C42.5946 41.4068 42.4564 41.5395 42.4564 41.7018C42.4564 42.2353 44.0353 42.0278 44.0353 43.3517C44.0353 44.1986 43.353 44.8379 42.2252 44.8379Z" fill="white"/>
<path d="M13.2765 7.10791L16.1087 4.02114L11.7948 0.117188L8.69336 6.97664C9.25726 6.77481 9.91703 6.68589 10.7897 6.68589C11.8414 6.6873 12.6647 6.81575 13.2765 7.10791Z" fill="white"/>
<path d="M14.2031 7.87803C14.5429 8.37625 14.7022 9.04809 14.7022 9.92598V10.5442L14.7431 10.5639L17.6331 13.5434L22.4939 9.78484L18.7566 6.41016L14.2031 7.87803Z" fill="white"/>
<path d="M14.6672 10.6559L14.5769 10.6094H9.42849C9.30444 10.6094 9.1832 10.6094 9.06055 10.6094L9.64419 16.0362C9.98213 15.9301 10.3346 15.8777 10.6888 15.881H14.5967L14.6714 15.833L17.5431 13.6129L14.6672 10.6559Z" fill="white"/>
<path d="M11.8418 0.0078125L16.1867 3.93294L18.4211 1.49685C16.7182 0.572375 14.5161 0.0769716 11.8418 0.0078125Z" fill="white"/>
<path d="M13.3828 7.15651C13.6752 7.30786 13.9312 7.52124 14.1328 7.78177L18.6581 6.32378L16.1939 4.09375L13.3828 7.15651Z" fill="white"/>
<path d="M8.67751 16.6397C8.91481 16.3872 9.20788 16.1938 9.53323 16.0751L8.94536 10.6172C8.27394 10.6358 7.60504 10.7075 6.94492 10.8317L5.53516 13.965L8.67751 16.6397Z" fill="white"/>
<path d="M18.0243 20.1211L13.998 21.1542L15.9336 22.7971L18.0243 20.1211Z" fill="white"/>
<path d="M20.6261 16.793L17.6219 13.6992L14.7376 15.9292L14.7023 15.9518V16.563C14.7023 17.8219 14.5078 18.6462 13.9298 19.1783C13.5629 19.5504 13.108 19.8238 12.6074 19.9729L13.8917 21.0625L18.1393 19.9729L20.6261 16.793Z" fill="white"/>
<path d="M9.96395 20.0575C9.16461 19.8782 8.63595 19.4322 8.37233 18.8677L3.60452 18.2227L1.63086 22.598C1.89081 23.0893 2.20683 23.5488 2.57258 23.9671L10.174 22.0194L9.96395 20.0575Z" fill="white"/>
<path d="M17.7129 13.63L20.6959 16.7041L22.5892 14.2807L22.6344 14.316V9.91659L22.5794 9.86719L17.7129 13.63Z" fill="white"/>
<path d="M6.62415 8.42936C6.9538 8.08808 7.31227 7.77593 7.69557 7.49641L4.4644 1.33984C3.4412 1.91848 2.50715 2.64254 1.69141 3.48943L6.62415 8.42936Z" fill="white"/>
<path d="M22.5873 9.71443L22.6367 9.67632V9.44203C22.6367 7.88948 22.3956 6.54581 21.9318 5.38281L18.8867 6.3708L22.5873 9.71443Z" fill="white"/>
<path d="M11.7012 0.0334529L11.6688 0.00522301C11.5039 0.00522301 11.3389 0.00522301 11.1712 0.00522301C10.0909 -0.00676121 9.01119 0.0630734 7.94141 0.214118L8.64629 6.78987L11.7012 0.0334529Z" fill="white"/>
<path d="M6.80762 10.8555C5.61911 11.0781 4.49077 11.549 3.49609 12.2372L5.43874 13.8858L6.80762 10.8555Z" fill="white"/>
<path d="M22.6372 23.3721V18.9375L18.2063 20.0666L16.0254 22.8697L20.2208 26.4293C22.5512 25.7871 22.6372 23.3721 22.6372 23.3721Z" fill="white"/>
<path d="M18.9721 26.5883C19.3445 26.5907 19.7159 26.5495 20.0788 26.4655L15.9496 22.9609L14.9416 24.2496L14.8965 24.2157C14.8965 24.2157 15.4209 26.5883 18.9721 26.5883Z" fill="white"/>
<path d="M3.48483 18.2049L0.584952 17.8125C0.584952 17.9282 0.584952 18.0426 0.584952 18.1583C0.5635 19.6526 0.898934 21.1305 1.56333 22.4688L3.48483 18.2049Z" fill="white"/>
<path d="M13.7556 21.0974L12.4728 20.0078C11.9162 20.1199 11.3485 20.1673 10.7811 20.149C10.5446 20.1494 10.3086 20.1276 10.0762 20.084L10.2848 21.9923L13.7556 21.0974Z" fill="white"/>
<path d="M10.1855 22.1328L2.66016 24.0594C2.7236 24.1286 2.78562 24.2005 2.85188 24.2626C4.30112 25.715 6.47778 26.5886 9.09289 26.5886C9.61531 26.5918 10.1373 26.5578 10.6549 26.487L10.1855 22.1328Z" fill="white"/>
<path d="M14.8975 24.2146L14.8524 24.1794L15.8631 22.8851L13.8627 21.1914L10.2988 22.1046L10.7683 26.48C12.5079 26.1977 13.6583 25.4539 14.8975 24.2146Z" fill="white"/>
<path d="M22.6349 14.4062L20.7754 16.7831L22.6349 18.6998V14.4062Z" fill="white"/>
<path d="M20.7062 16.875L18.3223 19.9251L22.6023 18.8284L20.7062 16.875Z" fill="white"/>
<path d="M8.31843 18.7435C8.22309 18.4954 8.17526 18.2316 8.17745 17.9658C8.17145 17.5135 8.32411 17.0735 8.60884 16.7223L5.47917 14.0703L3.64648 18.1126L8.31843 18.7435Z" fill="white"/>
<path d="M5.38921 13.9945L3.40145 12.3008C1.59696 13.6303 0.704578 15.6007 0.591797 17.6938L3.53397 18.0918L5.38921 13.9945Z" fill="white"/>
<path d="M18.7831 6.28291L21.8846 5.28081C21.2252 3.68953 20.039 2.37384 18.5251 1.55469L16.2695 4.01195L18.7831 6.28291Z" fill="white"/>
<path d="M7.79053 7.43041C8.02484 7.27168 8.2753 7.13826 8.5377 7.03239L8.55603 6.99145L7.82718 0.226562C6.68865 0.393851 5.58635 0.751696 4.56641 1.28512L7.79053 7.43041Z" fill="white"/>
<path d="M30.8789 9.81711V9.22855C30.9071 8.60438 31.136 8.00605 31.5316 7.52278C31.9272 7.03951 32.4682 6.69719 33.0739 6.54688L34.6246 9.57435L30.8789 9.81711Z" fill="white"/>
<path d="M37.3849 14.9601L37.3427 14.9912L31.9066 14.6623L30.9297 12.5861L30.8789 12.5028V9.92842L34.6796 9.67578L37.3849 14.9601Z" fill="white"/>
<path d="M31.9629 14.7812L37.1987 15.0974L33.4065 17.8511L31.9629 14.7812Z" fill="white"/>
<path d="M37.9495 22.8828V23.0804C37.9298 23.4923 37.8237 23.8954 37.6381 24.2636C37.4526 24.6318 37.1917 24.9567 36.8725 25.2173L35.8574 23.0578L37.9495 22.8828Z" fill="white"/>
<path d="M37.9465 12.614H40.6194L37.477 14.8949L34.8027 9.66983L37.9465 9.46094V12.614Z" fill="white"/>
<path d="M25.0254 14.2477C25.8008 12.6133 27.5009 12.6133 27.5009 12.6133H30.8125L30.8308 12.6429L31.7781 14.6528L25.0254 14.2477Z" fill="white"/>
<path d="M33.4551 17.9562L37.377 15.1094L37.4644 15.115L39.8103 19.6979H37.948V22.7691L35.8037 22.9483L33.4551 17.9562Z" fill="white"/>
<path d="M35.7353 23.0703L36.7814 25.2919C36.2598 25.6673 35.5126 25.9397 34.4158 25.9397C31.6978 25.9397 31.0704 24.2545 30.9238 23.4726L35.7353 23.0703Z" fill="white"/>
<path d="M30.753 19.697H27.5007C27.5007 19.697 24.9152 19.697 24.6699 16.6328L30.753 19.697Z" fill="white"/>
<path d="M34.7461 9.55712L33.1855 6.50847C33.5876 6.41161 33.9999 6.36422 34.4134 6.36733C37.9477 6.36733 37.9477 9.22544 37.9477 9.22544V9.34259L34.7461 9.55712Z" fill="white"/>
<path d="M24.6478 16.1547C24.633 15.5402 24.7443 14.9291 24.9749 14.3594L31.8319 14.7743L33.3122 17.9204L30.8874 19.6804L30.9043 19.6465L24.6577 16.4991C24.652 16.3876 24.6478 16.2747 24.6478 16.1547Z" fill="white"/>
<path d="M44.1477 15.5163C44.171 15.7277 44.1823 15.9402 44.1816 16.1528C44.1816 17.3398 43.8615 18.1288 43.4358 18.6524L43.2539 18.8557C42.7376 19.3641 42.0529 19.6654 41.3296 19.7025H39.9396L37.5938 15.1211L44.1477 15.5163Z" fill="white"/>
<path d="M37.5332 14.9972L40.8165 12.6133H41.3311C41.3311 12.6133 43.7615 12.6133 44.1351 15.4036L37.5374 15.0042L37.5332 14.9972Z" fill="white"/>
<path d="M30.8789 23.0805V19.8272L33.3643 18.0234L35.6862 22.9634L30.9071 23.3628C30.8913 23.2695 30.8819 23.1751 30.8789 23.0805Z" fill="white"/>
</g>
<defs>
<clipPath id="clip0_832_2820">
<rect width="44" height="44.8462" fill="white" transform="translate(0.181641)"/>
</clipPath>
</defs>
</svg>
