<svg width="33" height="21" viewBox="0 0 33 21" fill="none" xmlns="http://www.w3.org/2000/svg">
<g clip-path="url(#clip0_840_1802)">
<path d="M9.61151 5.37183L11.755 3.03846L8.48591 0.09375L6.13867 5.27901C6.56544 5.1275 7.06583 5.05922 7.72519 5.05922C8.52645 5.05389 9.14847 5.15204 9.61151 5.37183Z" fill="#F05A28"/>
<path d="M10.3125 5.96259C10.5696 6.33922 10.6902 6.84708 10.6902 7.5107V7.97695L10.7211 7.99295L12.9083 10.2452L16.5882 7.40401L13.7587 4.84766L10.3125 5.96259Z" fill="#E90D8B"/>
<path d="M10.6631 8.05474L10.5948 8.01953H6.69839C6.6045 8.01953 6.51274 8.01953 6.41992 8.02486L6.86163 12.1261C7.11739 12.0459 7.38417 12.0063 7.65222 12.0088H10.6097L10.6663 11.9725L12.8396 10.2942L10.6631 8.05474Z" fill="#98268E"/>
<path d="M8.52539 0.0078125L11.8137 2.97493L13.5047 1.13449C12.2159 0.434582 10.5493 0.0611588 8.52539 0.0078125Z" fill="#99CB5B"/>
<path d="M9.69141 5.40898C9.91294 5.52352 10.1067 5.68522 10.259 5.88269L13.6838 4.77736L11.8189 3.09375L9.69141 5.40898Z" fill="#F79421"/>
<path d="M6.13067 12.576C6.31025 12.3869 6.5317 12.2425 6.77723 12.1546L6.33232 8.02344C5.82421 8.03802 5.31802 8.09225 4.81836 8.18561L3.74609 10.5542L6.13067 12.576Z" fill="#E90D8B"/>
<path d="M13.2034 15.2109L10.1562 15.9919L11.6222 17.2338L13.2034 15.2109Z" fill="#F79421"/>
<path d="M15.1765 12.6942L12.9028 10.3555L10.7156 12.0423L10.689 12.0583V12.5203C10.689 13.473 10.5417 14.0961 10.1043 14.4983C9.82674 14.7796 9.48242 14.9859 9.10352 15.098L10.0755 15.9216L13.2912 15.098L15.1765 12.6942Z" fill="#E90D8B"/>
<path d="M7.10347 15.1643C6.49853 15.0278 6.09843 14.6906 5.89891 14.2649L2.29057 13.7773L0.796875 17.0848C0.995027 17.455 1.23564 17.8009 1.51385 18.1155L7.26671 16.642L7.10347 15.1643Z" fill="#1B75BB"/>
<path d="M12.9688 10.3015L15.2264 12.6252L16.6592 10.7933L16.6945 10.82V7.49437L16.6518 7.45703L12.9688 10.3015Z" fill="#98268E"/>
<path d="M4.57692 6.36982C4.82669 6.11213 5.09795 5.8762 5.38778 5.66458L2.94239 1.01172C2.16827 1.44907 1.46141 1.99601 0.84375 2.63558L4.57692 6.36982Z" fill="#F79421"/>
<path d="M16.6561 7.3472L16.6935 7.31946V7.13382C16.6935 5.9666 16.511 4.94449 16.16 4.06641L13.8555 4.81325L16.6561 7.3472Z" fill="#2AB8EB"/>
<path d="M8.41757 0.0275427L8.39304 0.00620291C8.26821 0.00620291 8.14444 0.000869588 8.01641 0.000869588C7.19955 -0.00755366 6.3832 0.0452269 5.57422 0.158772L6.10768 5.13065L8.41757 0.0275427Z" fill="#F79421"/>
<path d="M4.71519 8.20312C3.81577 8.37226 2.96193 8.72848 2.20898 9.24871L3.67921 10.4949L4.71519 8.20312Z" fill="#98268E"/>
<path d="M16.6946 17.6687V14.3164L13.3423 15.1699L11.6875 17.2835L14.8627 19.9754C16.6306 19.4931 16.6946 17.6687 16.6946 17.6687Z" fill="#F05A28"/>
<path d="M13.9204 20.0975C14.2022 20.0992 14.4832 20.0684 14.758 20.0057L11.6329 17.3555L10.8701 18.336L10.8359 18.3093C10.8359 18.3093 11.2286 20.0975 13.9204 20.0975Z" fill="#99CB5B"/>
<path d="M2.20071 13.7643L0.00604435 13.4688C0.00604435 13.5552 0.000711029 13.6427 0.000711029 13.7301C-0.015277 14.8597 0.238572 15.9768 0.741158 16.9885L2.20071 13.7643Z" fill="#2AB8EB"/>
<path d="M9.97324 15.9487L9.00127 15.125C8.58003 15.2097 8.15042 15.2455 7.72096 15.2317C7.542 15.232 7.3634 15.2156 7.1875 15.1826L7.34221 16.623L9.97324 15.9487Z" fill="#2AB8EB"/>
<path d="M7.27142 16.7305L1.57617 18.189C1.62418 18.2402 1.67113 18.2956 1.72128 18.3426C2.81914 19.4405 4.46541 20.0998 6.44455 20.0998C6.83993 20.1023 7.23497 20.0766 7.62671 20.023L7.27142 16.7305Z" fill="#99CB5B"/>
<path d="M10.8377 18.3049L10.8047 18.2782L11.5696 17.2998L10.0546 16.0195L7.35742 16.7098L7.71271 20.0173C9.02929 19.8039 9.8999 19.2427 10.8377 18.3049Z" fill="#D6DE23"/>
<path d="M16.6944 10.8906L15.2871 12.6873L16.6944 14.1362V10.8906Z" fill="#E90D8B"/>
<path d="M15.2319 12.7578L13.4277 15.0634L16.6669 14.2344L15.2319 12.7578Z" fill="#98268E"/>
<path d="M5.85876 14.1782C5.78668 13.9903 5.75049 13.7905 5.75207 13.5892C5.74733 13.2477 5.8629 12.9153 6.07855 12.6503L3.71317 10.6445L2.32617 13.7013L5.85876 14.1782Z" fill="#2AB8EB"/>
<path d="M3.64051 10.5811L2.13615 9.30078C0.770483 10.3069 0.0951197 11.7953 0.00976562 13.3775L2.23644 13.6784L3.64051 10.5811Z" fill="#1B75BB"/>
<path d="M13.7793 4.74891L16.1265 3.9914C15.6274 2.7888 14.7296 1.7946 13.584 1.17578L11.877 3.0333L13.7793 4.74891Z" fill="#D6DE23"/>
<path d="M5.45764 5.61639C5.635 5.49675 5.82455 5.39625 6.02311 5.31659L6.03698 5.28458L5.48538 0.171875C4.62361 0.297836 3.78929 0.568368 3.01758 0.972069L5.45764 5.61639Z" fill="#F05A28"/>
<path d="M22.9316 7.41774V6.9739C22.9517 6.50109 23.1244 6.04749 23.4238 5.68107C23.7233 5.31466 24.1335 5.05514 24.5928 4.94141L25.7665 7.22996L22.9316 7.41774Z" fill="#2AB8EB"/>
<path d="M27.8566 11.311L27.8235 11.3344L23.7094 11.0859L22.97 9.51641L22.9316 9.45346V7.50739L25.8081 7.31641L27.8566 11.311Z" fill="#F79421"/>
<path d="M23.752 11.1758L27.7145 11.4148L24.8456 13.4963L23.752 11.1758Z" fill="#F05A28"/>
<path d="M28.2825 17.3008V17.4491C28.2676 17.7606 28.1873 18.0655 28.0468 18.3439C27.9064 18.6224 27.709 18.8682 27.4674 19.0655L26.6992 17.4331L28.2825 17.3008Z" fill="#98268E"/>
<path d="M28.2825 9.53586H30.3054L27.9283 11.26L25.9043 7.31025L28.2825 7.15234V9.53586Z" fill="#D6DE23"/>
<path d="M18.502 10.7707C19.0888 9.53623 20.3755 9.53516 20.3755 9.53516H22.8817L22.8956 9.55756L23.6125 11.0833L18.502 10.7707Z" fill="#F05A28"/>
<path d="M24.8828 13.5739L27.8499 11.4219L27.9161 11.4261L29.6925 14.8904H28.282V17.2121L26.6592 17.3476L24.8828 13.5739Z" fill="#E90D8B"/>
<path d="M26.6063 17.4375L27.3979 19.1158C27.0032 19.3996 26.4377 19.6066 25.6076 19.6066C23.5517 19.6066 23.0715 18.3358 22.9648 17.7405L26.6063 17.4375Z" fill="#E90D8B"/>
<path d="M22.8362 14.8916H20.3748C20.3748 14.8916 18.4181 14.8916 18.2324 12.5742L22.8362 14.8916Z" fill="#F05A28"/>
<path d="M25.8618 7.22386L24.6797 4.9193C24.984 4.84612 25.296 4.81029 25.609 4.81261C28.2838 4.81261 28.2838 6.97313 28.2838 6.97313V7.06062L25.8618 7.22386Z" fill="#1B75BB"/>
<path d="M18.2158 12.2137C18.2049 11.7488 18.2892 11.2866 18.4633 10.8555L23.6528 11.1691L24.7784 13.5473L22.9433 14.8788L18.2243 12.4708C18.219 12.3897 18.2158 12.3033 18.2158 12.2137Z" fill="#F79421"/>
<path d="M32.9752 11.732C32.9928 11.8918 33.0014 12.0524 33.0008 12.2132C33.0008 13.1094 32.7586 13.7068 32.4364 14.1016L32.2988 14.2563C31.908 14.6407 31.3898 14.8684 30.8424 14.8965H29.7947L28.0215 11.4375L32.9752 11.732Z" fill="#D6DE23"/>
<path d="M27.9668 11.3372L30.4517 9.53516H30.8411C30.8411 9.53516 32.6805 9.53516 32.9632 11.6445L27.97 11.3425L27.9668 11.3372Z" fill="#99CB5B"/>
<path d="M22.9316 17.4464V14.9924L24.8105 13.6289L26.5677 17.3631L22.9508 17.6651C22.9394 17.5927 22.9329 17.5196 22.9316 17.4464Z" fill="#98268E"/>
</g>
<defs>
<clipPath id="clip0_840_1802">
<rect width="33" height="20.0987" fill="white"/>
</clipPath>
</defs>
</svg>
