<svg width="17" height="14" viewBox="0 0 17 14" fill="none" xmlns="http://www.w3.org/2000/svg">
<path d="M1.98475 13.5811C1.5324 13.5811 1.14516 13.42 0.823034 13.0979C0.500907 12.7758 0.339844 12.3885 0.339844 11.9362V2.06678C0.339844 1.61443 0.500907 1.22719 0.823034 0.905065C1.14516 0.582938 1.5324 0.421875 1.98475 0.421875H15.144C15.5963 0.421875 15.9836 0.582938 16.3057 0.905065C16.6278 1.22719 16.7889 1.61443 16.7889 2.06678V11.9362C16.7889 12.3885 16.6278 12.7758 16.3057 13.0979C15.9836 13.42 15.5963 13.5811 15.144 13.5811H1.98475ZM8.56435 7.82394L15.144 3.71168V2.06678L8.56435 6.17903L1.98475 2.06678V3.71168L8.56435 7.82394Z" fill="white"/>
</svg>
