<svg width="21" height="21" viewBox="0 0 21 21" fill="none" xmlns="http://www.w3.org/2000/svg">
<path d="M6.27638 0.402344C3.15245 0.402344 0.619141 2.93566 0.619141 6.05958V15.1112C0.619141 18.2351 3.15245 20.7684 6.27638 20.7684H15.328C18.4519 20.7684 20.9852 18.2351 20.9852 15.1112V6.05958C20.9852 2.93566 18.4519 0.402344 15.328 0.402344H6.27638ZM17.5909 2.66524C18.2154 2.66524 18.7223 3.17213 18.7223 3.79669C18.7223 4.42125 18.2154 4.92814 17.5909 4.92814C16.9663 4.92814 16.4594 4.42125 16.4594 3.79669C16.4594 3.17213 16.9663 2.66524 17.5909 2.66524ZM10.8022 4.92814C13.9261 4.92814 16.4594 7.46145 16.4594 10.5854C16.4594 13.7093 13.9261 16.2426 10.8022 16.2426C7.67824 16.2426 5.14493 13.7093 5.14493 10.5854C5.14493 7.46145 7.67824 4.92814 10.8022 4.92814ZM10.8022 7.19103C9.90194 7.19103 9.03857 7.54865 8.40201 8.18521C7.76544 8.82177 7.40783 9.68514 7.40783 10.5854C7.40783 11.4856 7.76544 12.349 8.40201 12.9855C9.03857 13.6221 9.90194 13.9797 10.8022 13.9797C11.7024 13.9797 12.5658 13.6221 13.2023 12.9855C13.8389 12.349 14.1965 11.4856 14.1965 10.5854C14.1965 9.68514 13.8389 8.82177 13.2023 8.18521C12.5658 7.54865 11.7024 7.19103 10.8022 7.19103Z" fill="white"/>
</svg>
