<svg width="25" height="21" viewBox="0 0 25 21" fill="none" xmlns="http://www.w3.org/2000/svg">
<path d="M24.6187 3.11994C23.7328 3.51337 22.7812 3.77813 21.7823 3.89755C22.8025 3.28657 23.5847 2.31918 23.9531 1.16572C22.9996 1.73134 21.9425 2.14237 20.8168 2.36454C19.916 1.40456 18.633 0.804688 17.2129 0.804688C14.4857 0.804688 12.2751 3.01626 12.2751 5.74253C12.2751 6.12949 12.3195 6.50718 12.4028 6.86729C8.29904 6.66178 4.66092 4.69553 2.2244 1.70727C1.80042 2.43675 1.55695 3.28472 1.55695 4.19101C1.55695 5.90361 2.42806 7.41533 3.75278 8.30032C2.94369 8.2744 2.18182 8.05223 1.51622 7.68286C1.51622 7.70415 1.51622 7.72359 1.51622 7.74489C1.51622 10.1379 3.21771 12.1338 5.47742 12.5865C5.06361 12.6994 4.62667 12.7596 4.17584 12.7596C3.85831 12.7596 3.54819 12.7281 3.24733 12.6716C3.8759 14.6332 5.69959 16.0616 7.86025 16.1014C6.17079 17.4262 4.04161 18.2158 1.72728 18.2158C1.32922 18.2158 0.935783 18.1927 0.548828 18.1464C2.73448 19.547 5.3293 20.3644 8.11852 20.3644C17.2018 20.3644 22.1674 12.8401 22.1674 6.31463C22.1674 6.10079 22.1628 5.88787 22.1535 5.67588C23.1191 4.9788 23.9568 4.10954 24.6187 3.11994Z" fill="white"/>
</svg>
