<svg width="29" height="21" viewBox="0 0 29 21" fill="none" xmlns="http://www.w3.org/2000/svg">
<path d="M27.6502 3.50042C27.3966 2.10075 26.1884 1.08145 24.7862 0.76323C22.688 0.31822 18.8047 0 14.6032 0C10.4042 0 6.45875 0.31822 4.358 0.76323C2.95833 1.08145 1.74761 2.03611 1.49402 3.50042C1.23796 5.09152 0.984375 7.31905 0.984375 10.183C0.984375 13.047 1.23796 15.2745 1.55618 16.8656C1.81224 18.2653 3.02048 19.2846 4.42015 19.6028C6.64769 20.0478 10.4663 20.3661 14.6678 20.3661C18.8693 20.3661 22.688 20.0478 24.9155 19.6028C26.3152 19.2846 27.5234 18.33 27.7795 16.8656C28.0331 15.2745 28.3513 12.9824 28.4159 10.183C28.2866 7.31905 27.9684 5.09152 27.6502 3.50042ZM11.1674 14.6381V5.72795L18.9315 10.183L11.1674 14.6381Z" fill="white"/>
</svg>
