<svg width="21" height="21" viewBox="0 0 21 21" fill="none" xmlns="http://www.w3.org/2000/svg">
<path d="M18.6962 0.402344H2.0331C1.01017 0.402344 0.181641 1.23087 0.181641 2.2538V18.9169C0.181641 19.9399 1.01017 20.7684 2.0331 20.7684H11.2904V12.4368H8.51321V9.65965H11.2904V8.16829C11.2904 5.34482 12.666 4.10526 15.0128 4.10526C16.1366 4.10526 16.7309 4.18858 17.0123 4.22653V6.88245H15.4118C14.4157 6.88245 14.0676 7.40827 14.0676 8.47286V9.65965H16.9873L16.5911 12.4368H14.0676V20.7684H18.6962C19.7192 20.7684 20.5477 19.9399 20.5477 18.9169V2.2538C20.5477 1.23087 19.7182 0.402344 18.6962 0.402344Z" fill="white"/>
</svg>
